<svg width="64" height="64" viewBox="0 0 64 64" xmlns="http://www.w3.org/2000/svg">
  <rect width="64" height="64" rx="14" fill="#F5D000"/>
  <path d="M14.312247422680416 35.8241649484536V43.535835051546385H8.960000000000004V20.464164948453604H17.099216494845365Q19.53781443298969 20.464164948453604 21.28758762886598 21.042144329896903Q23.037360824742272 21.620123711340202 24.169567010309283 22.633567010309275Q25.301773195876294 23.647010309278347 25.840164948453612 25.02465979381443Q26.37855670103093 26.40230927835051 26.37855670103093 28.001649484536077Q26.37855670103093 29.727670103092777 25.82432989690722 31.168659793814427Q25.270103092783508 32.60964948453608 24.129979381443302 33.63892783505154Q22.989855670103097 34.668206185567 21.240082474226806 35.2461855670103Q19.490309278350516 35.8241649484536 17.099216494845365 35.8241649484536ZM14.312247422680416 31.786226804123707H17.099216494845365Q19.189443298969074 31.786226804123707 20.107876288659796 30.788618556701024Q21.026309278350517 29.791010309278345 21.026309278350517 28.001649484536077Q21.026309278350517 27.20989690721649 20.78878350515464 26.56065979381443Q20.551257731958763 25.911422680412368 20.068288659793815 25.444288659793813Q19.585319587628867 24.977154639175254 18.848989690721652 24.723793814432987Q18.112659793814437 24.470432989690718 17.099216494845365 24.470432989690718H14.312247422680416Z M40.89929896907216 32.98969072164948Q41.216 33.591422680412364 41.50894845360825 34.24065979381443Q41.801896907216495 34.88989690721649 42.07109278350515 35.57080412371133Q42.34028865979381 34.8740618556701 42.63323711340206 34.208989690721644Q42.92618556701031 33.54391752577319 43.258721649484535 32.942185567010306L49.18103092783505 21.287587628865975Q49.33938144329897 20.986721649484533 49.50564948453608 20.82045360824742Q49.671917525773196 20.654185567010305 49.87777319587629 20.575010309278348Q50.08362886597938 20.49583505154639 50.344907216494846 20.479999999999997Q50.60618556701031 20.464164948453604 50.954556701030924 20.464164948453604H55.04V43.535835051546385H50.321154639175255V30.2660618556701Q50.321154639175255 29.300123711340202 50.416164948453606 28.175835051546386L44.303835051546386 40.03628865979381Q44.01880412371134 40.59051546391752 43.53583505154639 40.87554639175257Q43.052865979381444 41.160577319587624 42.435298969072164 41.160577319587624H41.706886597938144Q41.089319587628864 41.160577319587624 40.606350515463916 40.87554639175257Q40.12338144329897 40.59051546391752 39.838350515463915 40.03628865979381L33.69435051546392 28.159999999999997Q33.75769072164948 28.714226804123705 33.78936082474227 29.26053608247422Q33.821030927835054 29.806845360824738 33.821030927835054 30.2660618556701V43.535835051546385H29.10218556701031V20.464164948453604H33.187628865979384Q33.536 20.464164948453604 33.79727835051547 20.479999999999997Q34.05855670103093 20.49583505154639 34.26441237113402 20.575010309278348Q34.47026804123711 20.654185567010305 34.63653608247422 20.82045360824742Q34.80280412371134 20.986721649484533 34.96115463917526 21.287587628865975L40.89929896907216 32.98969072164948Z" fill="#111110"/>
</svg>
