<svg width="444" height="131" viewBox="0 0 444 131" fill="none" xmlns="http://www.w3.org/2000/svg">
<path d="M395.914 10.8796C421.756 11.8434 441.913 33.7312 440.935 59.7671C439.957 85.8031 418.215 106.128 392.373 105.165C369.073 104.296 306.198 105.785 250.16 118.548C224.931 124.294 199.873 108.351 194.19 82.9389C188.507 57.5266 204.352 32.2675 229.58 26.5216C295.882 11.4211 367.34 9.81389 395.914 10.8796Z" fill="#F5D000"/>
<path d="M419.632 48.6605C417.836 47.2296 415.471 46.4374 412.539 46.2837C409.784 46.1393 407.202 46.5164 404.793 47.415C400.252 49.0484 397.082 51.2884 395.285 54.1349C394.504 55.4307 394.074 56.8341 393.994 58.3449C393.981 58.6115 393.941 59.3669 393.876 60.6111C393.813 61.8108 393.949 63.4666 394.284 65.5783C394.621 67.6456 394.734 69.7457 394.622 71.8786C393.686 71.8742 392.925 71.9457 392.338 72.0931C391.751 72.2406 391.258 72.3039 390.858 72.2829C390.458 72.2619 390.112 72.0656 389.819 71.6938C389.571 71.3243 389.296 70.6193 388.995 69.5786C388.964 69.3097 388.915 68.5496 388.847 67.2985C388.779 66.0473 388.68 64.5272 388.551 62.7381C388.466 60.9514 388.346 59.0068 388.188 56.9044C388.078 54.7598 387.965 52.6597 387.85 50.604C387.594 46.1349 387.388 42.8491 387.231 40.7466C387.287 39.6802 388.092 39.1877 389.647 39.2692C390.58 39.3181 391.293 39.7565 391.784 40.5843C392.278 41.3676 392.653 42.2784 392.911 43.3168C393.17 44.3106 393.319 45.2987 393.357 46.2809C393.439 47.2655 393.514 47.9601 393.582 48.3646C399.722 43.4287 407.147 41.1889 415.856 41.6453C416.834 41.6966 417.855 41.7723 418.919 41.8727C419.188 41.8422 419.522 41.8374 419.922 41.8584C420.322 41.8794 420.708 42.1669 421.08 42.7211C421.536 43.3688 421.741 44.137 421.694 45.0258C421.578 47.2475 420.891 48.4591 419.632 48.6605Z" fill="black"/>
<path d="M362.931 70.082C366.847 70.0784 372.741 68.2932 380.614 64.7264C381.103 64.726 381.504 64.9036 381.816 65.2593C382.127 65.5705 382.283 65.9485 382.284 66.3935C380.507 69.4209 377.105 71.7823 372.078 73.4777C367.052 75.1731 362.358 75.4666 357.996 74.3581C353.056 73.0722 350.05 70.2939 348.978 66.0232C348.888 65.1779 348.843 64.0432 348.841 62.6194C348.84 61.1955 349.194 59.3263 349.904 57.0118C350.659 54.6529 351.925 52.4269 353.703 50.334C355.481 48.241 357.57 46.5928 359.972 45.3892C362.374 44.1856 364.932 43.5826 367.646 43.5801C370.227 43.5778 373.12 44.4651 376.325 46.242C377.839 47.0861 379.041 48.0417 379.932 49.1088C380.823 50.1759 381.269 51.2657 381.27 52.3781C381.27 52.6895 381.248 53.001 381.204 53.3125C381.118 56.0269 379.807 57.7412 377.271 58.4554C376.159 58.7679 374.868 58.9248 373.4 58.9262L363.789 58.5344C360.585 58.5373 358.138 59.2292 356.449 60.6101C355.47 61.3675 354.782 62.5027 354.383 64.016C355.499 68.0641 358.348 70.0861 362.931 70.082ZM374.793 49.4472C373.814 48.7361 372.79 48.2253 371.722 47.9148C370.653 47.6043 369.763 47.4494 369.051 47.45C368.339 47.4507 367.183 47.6965 365.581 48.1874C363.98 48.6338 362.556 49.1468 361.311 49.7264C358.242 51.153 356.708 52.645 356.71 54.2024C360.27 54.5107 362.94 54.664 364.719 54.6624C369.659 54.6579 372.995 54.2322 374.73 53.3852C375.797 52.9392 376.331 52.3825 376.33 51.7151C376.33 50.9142 375.817 50.1582 374.793 49.4472Z" fill="black"/>
<path d="M327.363 102.28C326.43 104.372 325.319 105.419 324.028 105.42C323.405 105.421 322.938 105.132 322.626 104.554C322.358 104.02 322.358 103.375 322.624 102.618C323.599 98.4791 324.997 93.7612 326.816 88.4645C328.68 83.1678 329.923 79.6069 330.544 77.782C328.985 76.226 326.535 73.1135 323.194 68.4444C316.333 58.8394 312.902 53.5697 312.901 52.6353C312.901 52.5908 312.923 52.5463 312.967 52.5017L315.501 49.9631C319.02 53.2082 323.608 58.7216 329.266 66.5033C330.691 68.4599 331.828 70.1052 332.674 71.4393C333.607 69.5696 334.34 67.9671 334.872 66.6317C335.405 65.2519 335.827 64.1613 336.138 63.3601C336.493 62.5144 336.959 61.4015 337.536 60.0216C339.046 56.327 341.133 51.6308 343.797 45.9328C344.198 45.7545 344.62 45.6651 345.065 45.6647C346.178 45.6637 346.979 45.9522 347.469 46.5302C347.647 46.7525 347.736 47.0194 347.737 47.3309C347.737 47.5979 347.693 47.8649 347.604 48.132L327.363 102.28Z" fill="black"/>
<path d="M289.785 75.375C293.701 75.3714 299.595 73.5862 307.467 70.0194C307.957 70.0189 308.357 70.1966 308.669 70.5522C308.981 70.8634 309.137 71.2415 309.137 71.6865C307.36 74.7138 303.958 77.0752 298.932 78.7706C293.905 80.4661 289.211 80.7595 284.85 79.6511C279.909 78.3652 276.903 75.5869 275.832 71.3162C275.742 70.4708 275.696 69.3362 275.695 67.9123C275.694 66.4884 276.048 64.6193 276.758 62.3048C277.512 59.9458 278.778 57.7199 280.556 55.6269C282.334 53.534 284.424 51.8857 286.826 50.6821C289.227 49.4786 291.785 48.8755 294.5 48.8731C297.08 48.8708 299.974 49.7581 303.179 51.535C304.693 52.3791 305.895 53.3347 306.786 54.4018C307.677 55.4689 308.123 56.5586 308.124 57.671C308.124 57.9825 308.102 58.294 308.058 58.6055C307.971 61.3199 306.66 63.0342 304.124 63.7484C303.012 64.0609 301.722 64.2178 300.254 64.2191L290.642 63.8274C287.438 63.8303 284.992 64.5222 283.302 65.9031C282.324 66.6604 281.635 67.7957 281.236 69.3089C282.352 73.3571 285.202 75.3791 289.785 75.375ZM301.647 54.7401C300.667 54.0291 299.643 53.5183 298.575 53.2078C297.507 52.8973 296.617 52.7424 295.905 52.743C295.193 52.7436 294.036 52.9894 292.435 53.4803C290.833 53.9267 289.41 54.4397 288.165 55.0193C285.096 56.446 283.562 57.938 283.563 59.4954C287.123 59.8036 289.793 59.957 291.573 59.9553C296.512 59.9509 299.849 59.5251 301.583 58.6781C302.651 58.2322 303.184 57.6755 303.184 57.0081C303.183 56.2071 302.671 55.4512 301.647 54.7401Z" fill="black"/>
<path d="M225.97 73.9623L226.407 78.8223C226.416 79.0892 226.411 79.5791 226.391 80.2922C226.416 81.0037 226.172 81.6578 225.659 82.2545C225.188 82.8052 224.575 83.0938 223.819 83.1202C223.107 83.145 222.551 83.1422 222.149 83.1117C220.681 83.163 219.925 82.5438 219.88 81.2542C219.843 80.1869 220.182 75.8785 220.898 68.3291C221.612 60.7351 222.065 55.844 222.256 53.6557C222.446 51.4674 222.605 49.6364 222.732 48.1627C222.901 46.643 223.018 45.5258 223.082 44.8112C223.146 44.0966 223.255 43.3804 223.408 42.6627C223.561 41.945 223.807 41.3575 224.148 40.9004C224.785 40.0322 226.06 39.5647 227.972 39.498C231.23 40.987 234.679 45.408 238.32 52.7608C240.907 58.0133 242.626 61.337 243.476 62.7321C244.326 64.1272 245.139 65.0783 245.913 65.5855L258.444 41.9067C259.354 41.2071 260.054 40.8487 260.543 40.8316C261.966 40.7819 263.078 41.3887 263.879 42.6519C264.68 43.9151 265.358 45.472 265.912 47.3226C266.51 49.1272 267.025 51.1351 267.458 53.3461C267.936 55.5556 268.351 57.8786 268.704 60.3151C269.099 62.7055 269.47 65.0523 269.818 67.3554C270.634 72.8923 271.223 76.3669 271.584 77.779C271.99 79.1896 272.203 80.2062 272.225 80.8287C272.245 81.4068 272.065 81.9919 271.685 82.584C271.304 83.1316 270.757 83.4178 270.045 83.4427C269.334 83.4675 268.613 83.2256 267.883 82.7168C267.151 82.1635 266.683 81.4898 266.477 80.6955C266.314 79.8553 266.12 78.7712 265.896 77.4434C265.716 76.1139 265.486 74.6304 265.206 72.9928C264.925 71.3108 264.641 69.562 264.355 67.7465C264.067 65.8866 263.783 64.1156 263.502 62.4335C263.22 60.7514 262.968 59.2687 262.745 57.9853C262.521 56.6574 262.352 55.6615 262.24 54.9976C262.209 54.1082 262.158 53.2863 262.087 52.5319C262.016 51.7775 261.822 51.3168 261.505 51.1497C261.187 50.9827 260.706 51.2222 260.06 51.868C259.458 52.4679 258.611 53.6996 257.518 55.5632C255.163 59.519 251.788 66.1595 247.395 75.4848C246.811 76.6183 245.997 76.8916 244.952 76.3047C243.728 75.6796 242.646 74.0033 241.704 71.2757L228.52 45.6231C227.527 47.7949 226.796 54.8996 226.326 66.9374C226.244 68.4095 226.198 69.6578 226.189 70.6821C226.006 71.8016 225.933 72.895 225.97 73.9623Z" fill="black"/>
<path d="M137.591 72.5891C137.32 66.7407 139.63 61.9152 144.52 58.1126C148.404 55.1016 153.157 53.1679 158.779 52.3116C159.077 52.2978 159.771 52.2657 160.861 52.2152C161.951 52.1647 163.428 52.4191 165.292 52.9785C169.42 54.1781 172.31 56.5029 173.959 59.953C174.618 61.3132 174.971 62.489 175.017 63.4802C175.06 64.4219 175.067 65.0922 175.035 65.491C175.322 71.6863 173.194 76.6772 168.651 80.4637C164.441 83.9368 159.065 85.8248 152.522 86.1278C147.814 86.3458 144.195 85.4207 141.665 83.3524C139.185 81.2818 137.827 77.694 137.591 72.5891ZM142.803 74.1358C142.945 77.2087 143.86 79.2524 145.546 80.2671C146.821 81.0027 148.921 81.3028 151.846 81.1674C154.77 81.032 157.337 80.6896 159.546 80.1403C161.756 79.5909 163.703 78.7309 165.387 77.5602C168.994 75.0091 170.682 71.2306 170.45 66.2248C170.312 63.251 169.407 60.8592 167.734 59.0493C165.905 57.0975 163.578 56.187 160.753 56.3179C158.836 56.7543 156.896 57.2167 154.931 57.705C153.017 58.191 151.219 59.0441 149.537 60.2644C145.882 62.8674 143.638 67.4912 142.803 74.1358Z" fill="black"/>
<path d="M125.648 58.6856C125.425 56.0139 125.215 53.6394 125.02 51.5624C124.822 49.4358 124.675 47.878 124.58 46.8891C124.532 45.8482 124.019 43.3637 123.043 39.4354C123.461 38.82 123.856 38.2305 124.227 37.667C124.648 37.1011 125.255 36.7999 126.048 36.7631C127.783 36.6828 129.46 43.9313 131.078 58.5087C131.966 66.9609 132.607 75.4247 132.999 83.8999C133.105 86.1798 131.571 87.3931 128.399 87.54L127.801 87.4932C127.682 84.916 127.455 81.6235 127.12 77.6158C126.786 73.6081 126.5 70.1197 126.263 67.1505C126.076 64.1791 125.871 61.3574 125.648 58.6856Z" fill="black"/>
<path d="M81.3271 47.0403L80.66 37.4603C80.6233 36.6673 80.8672 36.0352 81.3917 35.5638C81.9163 35.0925 82.575 34.8385 83.368 34.8018C84.161 34.7651 84.89 34.9548 85.555 35.3711C86.2177 35.7377 86.4919 36.2962 86.3776 37.0466L88.3852 69.139C91.3148 64.8312 95.3659 61.1419 100.538 58.0713C104.839 55.488 108.65 54.1195 111.971 53.9658C114.895 53.8304 117.194 54.6676 118.867 56.4776C120.125 57.9094 120.812 59.8643 120.926 62.3425C121.039 64.771 120.667 66.924 119.81 68.8015C119 70.627 117.891 72.4168 116.482 74.1708C115.071 75.8752 113.433 77.4908 111.566 79.0176C109.7 80.5444 107.802 81.9237 105.872 83.1555C102.206 85.5106 98.5727 87.4918 94.9717 89.0989C94.6697 89.0136 94.1729 89.0118 93.4813 89.0934C92.7898 89.1751 91.9483 89.2389 90.9571 89.2848C88.2807 89.4088 85.9116 89.1956 83.8497 88.6454C83.136 83.9599 82.5566 76.8096 82.1114 67.1944L81.3271 47.0403ZM89.2623 83.254C89.2875 83.7992 89.7958 84.0489 90.787 84.003C91.8278 83.9548 93.0825 83.698 94.551 83.2327C96.0195 82.7673 97.7728 82.0156 99.8108 80.9775C101.896 79.8876 103.969 78.525 106.029 76.8899C110.822 73.1415 114.373 68.8297 116.68 63.9547C115.905 61.1594 113.906 59.8364 110.685 59.9856C107.761 60.121 104.515 61.364 100.949 63.7146C95.8891 67.078 92.3509 71.116 90.334 75.8286C89.4772 77.706 89.0924 79.5864 89.1797 81.4698C89.2026 81.9654 89.221 82.3619 89.2347 82.6593C89.2485 82.9567 89.2577 83.1549 89.2623 83.254Z" fill="black"/>
<path d="M70.7527 79.5487C67.3063 85.5692 62.5176 89.4167 56.3865 91.0914C54.963 91.4553 53.6564 91.6648 52.4669 91.7199C51.327 91.7727 50.3605 91.8174 49.5675 91.8541C48.8218 91.839 47.9735 91.7541 47.0226 91.5995C46.0718 91.4448 45.1895 91.1628 44.3758 90.7535C42.4938 89.7976 41.5092 88.3779 41.422 86.4946C41.1824 85.6116 41.0374 84.6249 40.9869 83.5346C40.9341 82.3946 41.1131 80.8963 41.5238 79.0395C41.9345 77.1827 42.7349 75.1589 43.9248 72.9681C45.1643 70.7749 46.6844 68.7426 48.4852 66.8711C52.2262 62.9231 56.3514 60.2983 60.8606 58.9968C62.1851 58.6374 63.3925 58.4325 64.4828 58.382C65.6228 58.3292 66.6423 58.3565 67.5413 58.4639C70.4159 58.3308 72.4395 60.199 73.612 64.0686C74.3711 66.5169 74.9035 69.969 75.2092 74.4251C75.5621 78.8293 75.8444 82.2433 76.0559 84.6673C76.3148 87.0394 76.7379 89.2053 77.3253 91.1648L72.9391 91.3679C72.6788 90.0389 72.4751 88.8563 72.3278 87.8201C72.1804 86.7839 72.0366 85.822 71.8961 84.9344C71.5519 82.8643 71.1708 81.069 70.7527 79.5487ZM69.9217 68.0391C69.7886 65.1645 68.3095 63.7926 65.4845 63.9234C65.1352 63.8899 64.7871 63.8812 64.4402 63.8972C60.8221 64.0648 57.0861 65.9762 53.2322 69.6315C51.4223 71.3047 49.8941 73.1635 48.6477 75.208C46.796 78.1249 45.9218 80.6984 46.0251 82.9288C46.1605 85.853 47.926 87.5096 51.3215 87.8987C55.7775 87.5931 59.9458 85.3636 63.8263 81.2104C65.4807 79.3954 66.8308 77.4455 67.8766 75.3606C69.3364 72.5612 70.0181 70.1207 69.9217 68.0391Z" fill="black"/>
<path d="M7.41896 94.801L3.76767 94.7882L2.78855 73.6431C2.84828 69.0931 2.87786 65.0598 2.87728 61.5432C2.8767 58.0267 3.03345 54.9879 3.34754 52.4269C3.66162 49.8658 4.26516 47.7158 5.15816 45.9768C6.04835 44.1773 7.44107 42.7183 9.33632 41.5998C12.7546 39.5014 19.1591 38.2347 28.5496 37.7999C32.5973 37.6125 36.0453 37.9075 38.8937 38.6851C41.7393 39.4022 43.8549 40.1227 45.2405 40.8467C48.3952 42.3983 50.0425 44.6866 50.1826 47.7117C50.3227 50.7367 49.6676 53.5257 48.2174 56.0788C46.8183 58.5688 44.9195 60.7788 42.521 62.7087C40.1737 64.5757 37.4885 66.1552 34.4655 67.4471C31.4425 68.7391 28.4097 69.8193 25.3671 70.6878C19.9184 72.1527 14.6575 73.0026 9.5844 73.2375L10.2019 93.5808C10.2355 94.3068 9.30786 94.7135 7.41896 94.801ZM9.02859 62.9864C9.16867 66.0114 10.399 67.4702 12.7197 67.3627C13.0435 67.3477 13.6102 67.3215 14.4197 67.284C15.2264 67.186 16.6254 67.0303 18.6166 66.8168C20.6591 66.5404 22.8038 66.1379 25.0509 65.6094C27.2951 65.0205 29.5338 64.3105 31.7669 63.4795C34.0539 62.6461 36.0897 61.6423 37.8742 60.4684C41.9121 57.7349 43.84 54.4019 43.6579 50.4693C42.6663 46.5743 39.3389 44.2122 33.6757 43.3831C31.9859 43.0975 30.4664 42.986 29.1172 43.0485C27.8219 43.1084 26.261 43.2717 24.4345 43.5381C22.6591 43.7416 20.6023 44.2916 18.2641 45.188C15.9259 46.0845 13.9781 47.2357 12.4207 48.6417C10.8633 50.0477 10.0442 51.6317 9.96356 53.3937C9.94321 54.1223 9.84751 54.9755 9.67646 55.9535C9.17171 59.0691 8.95576 61.4133 9.02859 62.9864Z" fill="black"/>
</svg>
